<svg id="calendar" xmlns="http://www.w3.org/2000/svg" viewBox="0 0 14 14" preserveAspectRatio="xMidYMid meet" xml:space="preserve">
    <style>
        path { display: none; }
        path:target { display: block; }
    </style>
	<path id="base" fill-rule="evenodd" fill="#303d54"
				d="M12 1h-1V0h-1v1H4V0H3v1H2C.74 1 .003 2.489.003 3.859v7.735c0 1.328 1.021 2.404 2.281 2.404h9.432c1.26 0 2.282-1.076 2.282-2.404V3.859C13.998 2.489 13.26 1 12 1zM2 2h1v2h1V2h6v2h1V2h1c.756 0 1.085 1.037 1.085 1.859L13 6H1L.915 3.859C.915 3.037 1.244 2 2 2zm9.716 11.037H2.284c-.756 0-1.369-.646-1.369-1.443L1 7h12l.085 4.594c0 .797-.613 1.443-1.369 1.443z"/>
	<path id="carenews" fill-rule="evenodd" fill="#7cc581"
				d="M12 1h-1V0h-1v1H4V0H3v1H2C.74 1 .003 2.489.003 3.859v7.735c0 1.328 1.021 2.404 2.281 2.404h9.432c1.26 0 2.282-1.076 2.282-2.404V3.859C13.998 2.489 13.26 1 12 1zM2 2h1v2h1V2h6v2h1V2h1c.756 0 1.085 1.037 1.085 1.859L13 6H1L.915 3.859C.915 3.037 1.244 2 2 2zm9.716 11.037H2.284c-.756 0-1.369-.646-1.369-1.443L1 7h12l.085 4.594c0 .797-.613 1.443-1.369 1.443z"/>
	<path id="player" fill-rule="evenodd" fill="#6289f1"
				d="M12 1h-1V0h-1v1H4V0H3v1H2C.74 1 .003 2.489.003 3.859v7.735c0 1.328 1.021 2.404 2.281 2.404h9.432c1.26 0 2.282-1.076 2.282-2.404V3.859C13.998 2.489 13.26 1 12 1zM2 2h1v2h1V2h6v2h1V2h1c.756 0 1.085 1.037 1.085 1.859L13 6H1L.915 3.859C.915 3.037 1.244 2 2 2zm9.716 11.037H2.284c-.756 0-1.369-.646-1.369-1.443L1 7h12l.085 4.594c0 .797-.613 1.443-1.369 1.443z"/>
	<path id="provider" fill-rule="evenodd" fill="#fb7e52"
				d="M12 1h-1V0h-1v1H4V0H3v1H2C.74 1 .003 2.489.003 3.859v7.735c0 1.328 1.021 2.404 2.281 2.404h9.432c1.26 0 2.282-1.076 2.282-2.404V3.859C13.998 2.489 13.26 1 12 1zM2 2h1v2h1V2h6v2h1V2h1c.756 0 1.085 1.037 1.085 1.859L13 6H1L.915 3.859C.915 3.037 1.244 2 2 2zm9.716 11.037H2.284c-.756 0-1.369-.646-1.369-1.443L1 7h12l.085 4.594c0 .797-.613 1.443-1.369 1.443z"/>
	<path id="invert" fill-rule="evenodd" fill="#fff"
				d="M12 1h-1V0h-1v1H4V0H3v1H2C.74 1 .003 2.489.003 3.859v7.735c0 1.328 1.021 2.404 2.281 2.404h9.432c1.26 0 2.282-1.076 2.282-2.404V3.859C13.998 2.489 13.26 1 12 1zM2 2h1v2h1V2h6v2h1V2h1c.756 0 1.085 1.037 1.085 1.859L13 6H1L.915 3.859C.915 3.037 1.244 2 2 2zm9.716 11.037H2.284c-.756 0-1.369-.646-1.369-1.443L1 7h12l.085 4.594c0 .797-.613 1.443-1.369 1.443z"/>
</svg>
