<svg id="magnifier" xmlns="http://www.w3.org/2000/svg" viewBox="0 0 22 22" preserveAspectRatio="xMidYMid meet" xml:space="preserve">
    <style>
        path { display: none; }
        path:target { display: block; }
    </style>
    <path id="base" fill="#303d54" d="M21.67,20.12,17.59,16A9.85,9.85,0,1,0,16,17.57l4.11,4.11a1.09,1.09,0,0,0,1.55,0A1.1,1.1,0,0,0,21.67,20.12ZM9.87,17.48A7.63,7.63,0,1,1,17.5,9.85,7.64,7.64,0,0,1,9.87,17.48Z"/>
    <path id="carenews" fill="#7cc581" d="M21.67,20.12,17.59,16A9.85,9.85,0,1,0,16,17.57l4.11,4.11a1.09,1.09,0,0,0,1.55,0A1.1,1.1,0,0,0,21.67,20.12ZM9.87,17.48A7.63,7.63,0,1,1,17.5,9.85,7.64,7.64,0,0,1,9.87,17.48Z"/>
    <path id="player" fill="#6289f1" d="M21.67,20.12,17.59,16A9.85,9.85,0,1,0,16,17.57l4.11,4.11a1.09,1.09,0,0,0,1.55,0A1.1,1.1,0,0,0,21.67,20.12ZM9.87,17.48A7.63,7.63,0,1,1,17.5,9.85,7.64,7.64,0,0,1,9.87,17.48Z"/>
    <path id="provider" fill="#fb7e52" d="M21.67,20.12,17.59,16A9.85,9.85,0,1,0,16,17.57l4.11,4.11a1.09,1.09,0,0,0,1.55,0A1.1,1.1,0,0,0,21.67,20.12ZM9.87,17.48A7.63,7.63,0,1,1,17.5,9.85,7.64,7.64,0,0,1,9.87,17.48Z"/>
    <path id="invert" fill="#fff" d="M21.67,20.12,17.59,16A9.85,9.85,0,1,0,16,17.57l4.11,4.11a1.09,1.09,0,0,0,1.55,0A1.1,1.1,0,0,0,21.67,20.12ZM9.87,17.48A7.63,7.63,0,1,1,17.5,9.85,7.64,7.64,0,0,1,9.87,17.48Z"/>
</svg>
